<?xml version="1.0" standalone="no"?>
<!DOCTYPE svg PUBLIC "-//W3C//DTD SVG 20010904//EN"
 "http://www.w3.org/TR/2001/REC-SVG-20010904/DTD/svg10.dtd">
<svg version="1.0" xmlns="http://www.w3.org/2000/svg"
 width="431.000000pt" height="431.000000pt" viewBox="0 0 431.000000 431.000000"
 preserveAspectRatio="xMidYMid meet">
<metadata>
Created by potrace 1.11, written by Peter Selinger 2001-2013
</metadata>
<g transform="translate(0.000000,431.000000) scale(0.100000,-0.100000)"
fill="#000000" stroke="none">
<path d="M1277 3074 c-1 -1 -20 -4 -42 -7 -158 -22 -326 -87 -465 -181 -25
-16 -46 -33 -48 -38 -2 -4 -9 -8 -16 -8 -24 0 -182 -166 -234 -245 -73 -112
-131 -257 -148 -375 -2 -14 -7 -46 -12 -72 -5 -26 -8 -98 -7 -160 7 -380 237
-727 602 -911 213 -108 484 -130 733 -61 61 17 193 75 198 86 2 5 10 8 17 8
10 0 250 153 265 170 8 8 41 28 105 61 105 56 184 42 315 -56 54 -41 156 -105
165 -105 3 0 24 -9 48 -19 65 -30 125 -44 208 -46 109 -4 201 17 302 71 26 14
68 27 95 29 130 12 271 64 375 139 96 68 161 145 225 267 115 220 115 439 0
676 -16 34 -36 67 -44 74 -8 6 -14 17 -14 23 0 12 -116 135 -156 167 -37 29
-138 84 -184 101 -120 44 -226 57 -345 43 -74 -9 -100 -13 -190 -35 -106 -26
-185 -35 -220 -26 -25 6 -115 91 -115 108 0 13 -47 75 -103 134 -50 53 -149
114 -185 114 -12 0 -23 4 -26 8 -5 9 -146 8 -181 -1 -54 -13 -130 -49 -176
-82 -58 -41 -46 -43 -157 19 -72 41 -245 102 -312 110 -25 3 -56 9 -70 12 -23
5 -198 12 -203 8z"/>
</g>
</svg>
